Simulation
nRows=38
nColumns=15
endheader
time  TH_x TH_y TH_z SC_y  SC_z  SC_x  AC_y  AC_z  AC_x  GH_y  GH_z  GH_yy  EL_x  PS_y
0.0  0.000000  0.000000  0.000000  -42.89666069693367  0.14740230019200953  -12.277685200711359  51.71482252853387  21.5908570268036  13.193239417360543  20.45597857032122  9.666705950176622  -19.366167810432742  100.28760965723826  120.000000
0.09591836734693876  0.000000  0.000000  0.000000  -41.83678891838698  2.820226198859707  -10.496767176938617  52.68332143367677  21.363740761521267  15.285415501630421  48.21184799248806  17.096298822424732  -46.268689086065095  92.27761082219718  120.000000
0.19183673469387752  0.000000  0.000000  0.000000  -41.26343077144968  4.8299095562734635  -9.229686205353413  53.650639849185126  20.682668089631466  16.80595597340804  58.35501743633837  25.29761164689125  -55.67834678706004  81.99413110106242  120.000000
0.2877551020408163  0.000000  0.000000  0.000000  -40.9610950702512  6.3323637432211495  -7.874774108769765  54.681916115606725  19.91978156504055  17.975207787895013  63.36880351761724  33.60354154759067  -60.30680449074449  68.82626144529475  120.000000
0.38367346938775504  0.000000  0.000000  0.000000  -40.9130149148807  7.443524261220199  -6.442915763764541  55.772473158497704  19.067938349717615  18.737963990514267  66.1755492353996  41.51679718880864  -63.05546797876435  53.55606417197118  120.000000
0.4795918367346938  0.000000  0.000000  0.000000  -40.96529054642325  8.208540041494944  -4.99495949625041  56.757024588198426  18.111300929369715  19.123559758295983  67.79843526116731  48.47227984821088  -64.7398737741651  38.22427438619898  120.000000
0.5755102040816326  0.000000  0.000000  0.000000  -41.03780754721157  8.659549104883965  -3.6807742282933145  57.52387375393682  17.100217268401735  19.1481810676929  68.80192391346249  53.92423421595847  -65.67091081487416  25.3009240329411  120.000000
0.6714285714285713  0.000000  0.000000  0.000000  -41.013464941794716  8.807511379819356  -2.583655147790952  57.8904156791828  16.194624153242724  18.858169596718394  69.41356345794549  57.38895433314265  -65.8907092270521  16.962278353413563  120.000000
0.7673469387755101  0.000000  0.000000  0.000000  -41.00289148238788  8.76781228493872  -1.7234692011786652  57.853618665605474  15.574389417913144  18.217061509501526  69.71108809595304  58.608922946199705  -65.41937961618508  14.444672158181582  120.000000
0.8632653061224489  0.000000  0.000000  0.000000  -41.047036861835124  8.586215552980024  -0.9882544924720956  57.37580297803291  15.383538173270836  17.32575247775858  69.60674220031581  57.526629416940516  -64.19551185263134  17.78169140109415  120.000000
0.9591836734693876  0.000000  0.000000  0.000000  -41.36918544827581  8.396447139376773  -0.1283531045684454  56.674055699811355  15.546398841015055  16.41404623306124  69.06088455408803  54.48631038069661  -62.18834016414105  25.970486403048255  120.000000
1.0551020408163263  0.000000  0.000000  0.000000  -41.88671166806567  8.599820113284022  1.1494900556348255  56.098918627125606  15.892483580335137  15.673439803015494  67.95017992110424  50.02549461554669  -59.36516307335093  37.390368131505454  120.000000
1.1510204081632651  0.000000  0.000000  0.000000  -42.74967644217675  9.272791512941659  3.036916878524244  55.795583955813896  15.676977086407971  15.49747968753316  66.17381684324114  44.71253354682824  -56.03640830598902  50.4149820400233  120.000000
1.246938775510204  0.000000  0.000000  0.000000  -43.96222628669013  11.098544785575434  5.523798707962314  56.00424581085264  14.170691334666786  15.866809582606644  63.59848669757879  38.956916945569986  -52.51372496720633  63.62633751932151  120.000000
1.3428571428571425  0.000000  0.000000  0.000000  -45.922503205769516  14.079782208923067  8.336548715087485  56.896694665743034  10.308868246735605  16.872331547782565  60.38758988912599  33.277100298333316  -49.94096087840327  76.21158409645808  120.000000
1.4387755102040813  0.000000  0.000000  0.000000  -48.32552404722932  17.398325625112236  11.74419177341934  58.14092612239002  3.780601670189513  18.685656671794  55.917410843459315  27.428064637330714  -48.19252106363228  87.40599708668238  120.000000
1.5346938775510202  0.000000  0.000000  0.000000  -51.13203547766156  20.883128660684243  15.64383715190133  60.21559402618456  -5.039736704168743  19.92768047171388  49.237904456778736  21.091977814758184  -46.93977168429389  96.82322713709706  120.000000
1.630612244897959  0.000000  0.000000  0.000000  -54.26639009867145  23.70361054046428  22.744434516441995  60.949613639460104  -12.035093767001797  20.473470671100927  35.06291518147115  14.979564443353835  -40.54797202771282  104.0604962299328  120.000000
1.7265306122448978  0.000000  0.000000  0.000000  -55.19831741175247  27.83656352410347  38.10915815976022  57.852366711943944  -4.267717582845854  17.445370769244587  -15.434901895137264  10.09124362252554  1.165768089483258  107.08457945385  120.000000
1.8224489795918364  0.000000  0.000000  0.000000  -50.91520076731206  24.214246197413747  50.28566909733712  48.63172889544602  5.272672317412775  24.325289396788357  -64.78395123147537  18.684964839767762  43.66991427508851  105.01135813376628  120.000000
1.9183673469387752  0.000000  0.000000  0.000000  -51.7220212487388  19.350297051161085  42.677136783025674  62.890395756561155  6.755100469443895  36.186469724065034  -58.669619717755296  35.081184026125946  36.26231783873341  100.14833825994198  120.000000
2.014285714285714  0.000000  0.000000  0.000000  -51.97488467329786  32.6929990580643  28.931479429085183  66.58756965323238  7.427750029411786  28.353624272624877  -50.19497348362953  43.390628649084384  36.28176973360184  89.52397666829205  120.000000
2.1102040816326526  0.000000  0.000000  0.000000  -44.10753943253567  36.7937288646  20.02663529477915  16.660693302137215  3.667439238004737  21.740018029078556  -32.00989518138104  33.27414046979335  38.07680421574795  77.85663538100123  120.000000
2.2061224489795914  0.000000  0.000000  0.000000  -48.21896941816973  35.78636000090605  6.105617748104492  -4.413999882083911  7.415489999015232  27.689419008244954  5.668108047724817  31.093202729318342  11.8073404772794  70.54952902955876  120.000000
2.3020408163265302  0.000000  0.000000  0.000000  -48.68603385336021  38.132895058931375  4.597904663728418  7.3342540596373205  7.869837378407576  32.42221422118685  11.850728460747632  41.819362453030955  -3.1837278846166153  69.13417257748186  120.000000
2.397959183673469  0.000000  0.000000  0.000000  -44.80187092533322  35.867378235945516  22.521202569630674  11.568984196382639  -2.984106125814806  35.41422649744727  16.647129402841323  47.639989803244084  -22.192187003495267  74.45716306564537  120.000000
2.493877551020408  0.000000  0.000000  0.000000  -45.49954365486512  34.87952233097934  25.119609874228757  16.00268441148709  -4.382236223222499  35.912069390154215  40.60682378824228  50.370629447491204  -54.10138012634889  82.07540273678383  120.000000
2.5897959183673467  0.000000  0.000000  0.000000  -45.047564155207645  36.271597351980965  20.05257419085045  13.465047001277258  -3.8070824331872877  35.63487757807481  74.15666518088865  50.404435593740615  -90.00398484625242  86.57575094581145  120.000000
2.685714285714285  0.000000  0.000000  0.000000  -45.112690417450715  36.129190830192066  21.73908929522941  13.663953784113248  -4.309952694514352  35.71496793240152  107.89545315210721  55.647005804698594  -122.31893657291867  92.93093455742742  120.000000
2.781632653061224  0.000000  0.000000  0.000000  -45.097651315039485  35.76904256578005  22.739132107885037  14.378519259401335  -4.391138797673047  35.78132629440946  133.56917492540614  65.01282688168403  -146.25216233907398  102.85781733472837  120.000000
2.8775510204081627  0.000000  0.000000  0.000000  -44.78692539725352  35.887893879851575  22.466582522036205  13.720910468674482  -4.484664559834959  35.74245580768736  158.50149701292102  73.10825053996156  -168.88348150669285  107.57607448783381  120.000000
2.9734693877551015  0.000000  0.000000  0.000000  -45.55289300185558  36.18570647534565  21.516395084993313  13.764137657270133  -3.5868675582666056  34.85434189672641  -177.36804835865038  73.1948653890949  167.71953613725833  106.5643605035039  120.000000
3.0693877551020403  0.000000  0.000000  0.000000  -43.46644809832686  35.545350052755296  19.331789768467804  12.95661639308711  -3.5495130250033275  35.567246862774034  -155.89986189894654  59.17832403584537  143.1402585957082  101.57307447759958  120.000000
3.165306122448979  0.000000  0.000000  0.000000  -44.817262974540554  35.84622226709941  22.57749855878576  15.543359901175444  -3.5125907047443863  35.74577564217601  -115.7763435659023  42.29390078217392  107.6124275906827  93.96965046649444  120.000000
3.261224489795918  0.000000  0.000000  0.000000  -46.53283307373415  36.82546597141274  19.69629302284429  10.628698233129553  -1.5289283001597356  35.21623915388598  -65.27001942374169  46.28807269936826  75.19475773566856  87.55805793330973  120.000000
3.3571428571428568  0.000000  0.000000  0.000000  -46.816081229839675  36.884959888038615  3.3734681851527437  7.083019926916604  8.514621000242345  33.015135331855674  -29.472304923427902  46.9265154961698  61.249097879243024  87.0471866946817  120.000000
3.4530612244897956  0.000000  0.000000  0.000000  -46.504665077237355  35.35533122675972  2.5985379493489478  0.021634334039492865  4.231879747624075  34.93899806520502  -18.357906417894647  37.615410256779384  52.54092800002016  89.05592002417009  120.000000
3.548979591836734  0.000000  0.000000  0.000000  -44.29235218408808  36.55237635635344  20.682265350051352  19.065102747462166  3.487546840166391  33.30678789403892  -54.40573499695717  27.642836118971058  68.35409887101258  89.5155100368537  120.000000
